<svg width="16" height="16" viewBox="0 0 16 16" fill="none" xmlns="http://www.w3.org/2000/svg">
<path d="M9.0855 2.75263L9.3667 2.47144C10.3477 1.49048 10.8381 1 11.4476 1C12.0571 1 12.5476 1.49048 13.5286 2.47144C14.5095 3.4524 15 3.94288 15 4.55237C15 5.16186 14.5095 5.65234 13.5286 6.6333L13.2474 6.9145M9.0855 2.75263L1.86544 9.97269C1.4321 10.406 1.21543 10.6227 1.1033 10.8988C0.991176 11.1748 0.995375 11.4812 1.00377 12.0939L1.02338 13.5255C1.03265 14.2019 1.03728 14.5401 1.2486 14.7514C1.45993 14.9627 1.79812 14.9673 2.47452 14.9766L3.90606 14.9962C4.51884 15.0046 4.82523 15.0088 5.10126 14.8967C5.37728 14.7846 5.59395 14.5679 6.0273 14.1346L13.2474 6.9145M9.0855 2.75263L13.2474 6.9145M9.10527 14.9962L15 14.9962" stroke="#7B61FF" stroke-width="1.4" stroke-linecap="round"/>
</svg>
