<svg width="18" height="16" viewBox="0 0 18 16" fill="none" xmlns="http://www.w3.org/2000/svg">
<path d="M11.1509 15C11.1509 15.3866 11.4643 15.7 11.8509 15.7C12.2375 15.7 12.5509 15.3866 12.5509 15H11.1509ZM0.3 15C0.3 15.3866 0.613401 15.7 1 15.7C1.3866 15.7 1.7 15.3866 1.7 15H0.3ZM13.5956 11.1043V10.4043C13.2119 10.4043 12.8998 10.7132 12.8956 11.0968C12.8915 11.4804 13.1969 11.7959 13.5805 11.8042L13.5956 11.1043ZM13.2884 4.56087C12.9018 4.56087 12.5884 4.87427 12.5884 5.26087C12.5884 5.64747 12.9018 5.96087 13.2884 5.96087V4.56087ZM16.2749 15C16.2749 15.3866 16.5883 15.7 16.9749 15.7C17.3615 15.7 17.6749 15.3866 17.6749 15H16.2749ZM10.4945 5.2H9.79452C9.79452 7.15406 8.2654 8.7 6.42544 8.7V9.4V10.1C9.08006 10.1 11.1945 7.88513 11.1945 5.2H10.4945ZM6.42544 9.4V8.7C4.58548 8.7 3.05636 7.15406 3.05636 5.2H2.35636H1.65636C1.65636 7.88513 3.77082 10.1 6.42544 10.1V9.4ZM2.35636 5.2H3.05636C3.05636 3.24594 4.58548 1.7 6.42544 1.7V1V0.3C3.77082 0.3 1.65636 2.51487 1.65636 5.2H2.35636ZM6.42544 1V1.7C8.2654 1.7 9.79452 3.24594 9.79452 5.2H10.4945H11.1945C11.1945 2.51487 9.08006 0.3 6.42544 0.3V1ZM1 15H1.7C1.7 14.216 1.70106 13.526 1.77924 12.9081C1.85672 12.2957 2.00431 11.8115 2.25993 11.4295C2.73906 10.7136 3.78604 10.1 6.42544 10.1V9.4V8.7C3.6394 8.7 1.97366 9.34004 1.09643 10.6509C0.673873 11.2823 0.482367 12.0048 0.39031 12.7324C0.298942 13.4545 0.3 14.2376 0.3 15H1ZM6.42544 9.4L6.40974 10.0998C9.05737 10.1592 10.1121 10.7705 10.5937 11.4792C10.8479 11.8535 10.9947 12.3254 11.0718 12.9265C11.1498 13.534 11.1509 14.2156 11.1509 15H11.8509H12.5509C12.5509 14.238 12.552 13.4616 12.4604 12.7482C12.368 12.0283 12.1756 11.3164 11.7517 10.6925C10.8769 9.40487 9.21894 8.76251 6.44114 8.70018L6.42544 9.4ZM15.9953 8.18261H15.2953C15.2953 8.88871 15.1239 9.45595 14.8443 9.82825C14.5838 10.1752 14.1941 10.4043 13.5956 10.4043V11.1043V11.8043C14.6201 11.8043 15.4303 11.3794 15.9638 10.6689C16.4784 9.98376 16.6953 9.09014 16.6953 8.18261H15.9953ZM13.2884 5.26087V5.96087C14.4547 5.96087 15.2953 6.88146 15.2953 8.18261H15.9953H16.6953C16.6953 6.25649 15.3682 4.56087 13.2884 4.56087V5.26087ZM13.5956 11.1043L13.5805 11.8042C15.5032 11.8457 15.968 12.2762 16.1314 12.5958C16.2361 12.8005 16.2881 13.0842 16.2981 13.5118C16.303 13.7213 16.2978 13.9464 16.2907 14.1986C16.2837 14.4458 16.2749 14.7188 16.2749 15H16.9749H17.6749C17.6749 14.7433 17.6829 14.4938 17.6901 14.2381C17.6972 13.9875 17.7035 13.7292 17.6977 13.4793C17.6863 12.988 17.6282 12.4481 17.3779 11.9585C16.8312 10.8892 15.6064 10.4476 13.6107 10.4045L13.5956 11.1043Z" fill="#7B61FF"/>
</svg>
