<svg width="17" height="18" viewBox="0 0 17 18" fill="none" xmlns="http://www.w3.org/2000/svg">
<path d="M3.03958 16.5975L2.72602 17.2234H2.72602L3.03958 16.5975ZM1.00003 10.8453L0.300028 10.8398V10.8453H1.00003ZM1.39838 14.9837L2.01989 14.6616H2.01989L1.39838 14.9837ZM16 10.8453H16.7L16.6999 10.8364L16 10.8453ZM15.6016 14.9837L16.2231 15.3057L15.6016 14.9837ZM13.9604 16.5975L14.274 17.2234L13.9604 16.5975ZM13.9604 3.8622L13.6469 4.48804L13.9604 3.8622ZM15.6016 5.47602L16.2231 5.15396L15.6016 5.47602ZM3.03958 3.8622L3.35314 4.48804L3.03958 3.8622ZM1.39838 5.47602L2.01989 5.79807L1.39838 5.47602ZM15.9705 7.08499L15.2721 7.13267V7.13267L15.9705 7.08499ZM15.9578 7.54416L15.2922 7.32736L15.2922 7.32736L15.9578 7.54416ZM15.7921 7.80333L16.2083 8.36612L16.2401 8.3426L16.2691 8.31564L15.7921 7.80333ZM1.04219 7.54416L1.70777 7.32736L1.04219 7.54416ZM1.20792 7.80333L0.73091 8.31564L0.759864 8.3426L0.791671 8.36612L1.20792 7.80333ZM6.72618 10.1464L6.83674 9.45514L6.72618 10.1464ZM1.30375 7.87421L0.887501 8.437L0.887502 8.437L1.30375 7.87421ZM10.2738 10.1464L10.1633 9.45514H10.1633L10.2738 10.1464ZM15.6963 7.87421L16.1125 8.437L16.1125 8.437L15.6963 7.87421ZM6.99781 3.45971V4.15971H10.0022V3.45971V2.75971H6.99781V3.45971ZM10.0022 17V16.3H6.99781V17V17.7H10.0022V17ZM6.99781 17V16.3C5.93482 16.3 5.17898 16.2995 4.58728 16.2519C4.00342 16.205 3.64073 16.1158 3.35314 15.9717L3.03958 16.5975L2.72602 17.2234C3.24177 17.4818 3.80657 17.5937 4.47517 17.6474C5.13594 17.7005 5.95754 17.7 6.99781 17.7V17ZM1.00003 10.8453H0.300028C0.300028 11.8677 0.296841 12.7353 0.347489 13.4438C0.397741 14.1467 0.504905 14.7809 0.776862 15.3057L1.39838 14.9837L2.01989 14.6616C1.88253 14.3965 1.79052 13.9957 1.74393 13.3439C1.69773 12.6977 1.70003 11.8912 1.70003 10.8453H1.00003ZM3.03958 16.5975L3.35314 15.9717C2.77724 15.6831 2.31122 15.2239 2.01989 14.6616L1.39838 14.9837L0.776862 15.3057C1.20564 16.1332 1.88864 16.8038 2.72602 17.2234L3.03958 16.5975ZM16 10.8453H15.3C15.3 11.8912 15.3023 12.6977 15.2561 13.3439C15.2095 13.9957 15.1175 14.3965 14.9801 14.6616L15.6016 14.9837L16.2231 15.3057C16.4951 14.7809 16.6023 14.1467 16.6525 13.4438C16.7032 12.7353 16.7 11.8677 16.7 10.8453H16ZM10.0022 17V17.7C11.0425 17.7 11.8641 17.7005 12.5248 17.6474C13.1934 17.5937 13.7582 17.4818 14.274 17.2234L13.9604 16.5975L13.6469 15.9717C13.3593 16.1158 12.9966 16.205 12.4127 16.2519C11.821 16.2995 11.0652 16.3 10.0022 16.3V17ZM15.6016 14.9837L14.9801 14.6616C14.6888 15.2239 14.2228 15.6831 13.6469 15.9717L13.9604 16.5975L14.274 17.2234C15.1114 16.8038 15.7944 16.1332 16.2231 15.3057L15.6016 14.9837ZM10.0022 3.45971V4.15971C11.0652 4.15971 11.821 4.16024 12.4127 4.20777C12.9966 4.25468 13.3593 4.34395 13.6469 4.48804L13.9604 3.8622L14.274 3.23636C13.7582 2.97796 13.1934 2.86598 12.5248 2.81227C11.8641 2.75918 11.0425 2.75971 10.0022 2.75971V3.45971ZM13.9604 3.8622L13.6469 4.48804C14.2228 4.77658 14.6888 5.23586 14.9801 5.79807L15.6016 5.47602L16.2231 5.15396C15.7944 4.32649 15.1114 3.6559 14.274 3.23636L13.9604 3.8622ZM6.99781 3.45971V2.75971C5.95754 2.75971 5.13594 2.75918 4.47517 2.81227C3.80657 2.86598 3.24177 2.97796 2.72602 3.23636L3.03958 3.8622L3.35314 4.48804C3.64073 4.34395 4.00342 4.25468 4.58728 4.20777C5.17898 4.16024 5.93482 4.15971 6.99781 4.15971V3.45971ZM3.03958 3.8622L2.72602 3.23636C1.88864 3.6559 1.20564 4.32648 0.776862 5.15396L1.39838 5.47602L2.01989 5.79807C2.31122 5.23586 2.77724 4.77658 3.35314 4.48804L3.03958 3.8622ZM1.02949 7.08499L1.72786 7.13267C1.77224 6.48269 1.86425 6.09845 2.01989 5.79807L1.39838 5.47602L0.776862 5.15396C0.492291 5.70315 0.380799 6.30966 0.331114 7.0373L1.02949 7.08499ZM15.9705 7.08499L16.6689 7.0373C16.6192 6.30966 16.5077 5.70315 16.2231 5.15396L15.6016 5.47602L14.9801 5.79807C15.1358 6.09845 15.2278 6.48269 15.2721 7.13267L15.9705 7.08499ZM15.9705 7.08499L15.2721 7.13267C15.2762 7.19208 15.2792 7.237 15.2813 7.27578C15.2833 7.31431 15.2839 7.33805 15.2838 7.35364C15.2836 7.38 15.2814 7.36066 15.2922 7.32736L15.9578 7.54416L16.6234 7.76097C16.7113 7.49096 16.6812 7.21714 16.6689 7.0373L15.9705 7.08499ZM15.9578 7.54416L15.2922 7.32736C15.2946 7.32003 15.2968 7.31517 15.2981 7.31244C15.2994 7.30966 15.3005 7.30782 15.3013 7.30657C15.3022 7.30513 15.3056 7.2998 15.3151 7.29102L15.7921 7.80333L16.2691 8.31564C16.4292 8.16655 16.5553 7.97003 16.6234 7.76097L15.9578 7.54416ZM1.02949 7.08499L0.331114 7.0373C0.318833 7.21715 0.288661 7.49096 0.376613 7.76097L1.04219 7.54416L1.70777 7.32736C1.71862 7.36066 1.71645 7.37999 1.71623 7.35364C1.7161 7.33805 1.71665 7.31431 1.7187 7.27578C1.72075 7.237 1.72381 7.19208 1.72786 7.13267L1.02949 7.08499ZM1.04219 7.54416L0.376613 7.76097C0.444714 7.97004 0.570787 8.16655 0.73091 8.31564L1.20792 7.80333L1.68493 7.29102C1.69436 7.2998 1.6978 7.30513 1.69872 7.30657C1.69952 7.30782 1.7006 7.30966 1.70194 7.31244C1.70325 7.31517 1.70539 7.32003 1.70777 7.32736L1.04219 7.54416ZM8.18704 8.99892V9.69892H8.81296V8.99892V8.29892H8.18704V8.99892ZM9.75183 9.92212H9.05183V11.1531H9.75183H10.4518V9.92212H9.75183ZM8.81296 12.0763V11.3763H8.18704V12.0763V12.7763H8.81296V12.0763ZM7.24818 11.1531H7.94818V9.92212H7.24818H6.54818V11.1531H7.24818ZM8.18704 12.0763V11.3763C8.04397 11.3763 7.94818 11.2653 7.94818 11.1531H7.24818H6.54818C6.54818 12.0606 7.29307 12.7763 8.18704 12.7763V12.0763ZM9.75183 11.1531H9.05183C9.05183 11.2653 8.95603 11.3763 8.81296 11.3763V12.0763V12.7763C9.70693 12.7763 10.4518 12.0606 10.4518 11.1531H9.75183ZM8.81296 8.99892V9.69892C8.95603 9.69892 9.05183 9.80991 9.05183 9.92212H9.75183H10.4518C10.4518 9.01459 9.70693 8.29892 8.81296 8.29892V8.99892ZM8.18704 8.99892V8.29892C7.29307 8.29892 6.54818 9.01459 6.54818 9.92212H7.24818H7.94818C7.94818 9.80991 8.04397 9.69892 8.18704 9.69892V8.99892ZM7.88503 1V1.7H9.13686V1V0.3H7.88503V1ZM11.0146 2.8464H10.3146V3.46187H11.0146H11.7146V2.8464H11.0146ZM6.0073 2.8464H5.3073V3.46187H6.0073H6.7073V2.8464H6.0073ZM9.13686 1V1.7C9.79845 1.7 10.3146 2.22432 10.3146 2.8464H11.0146H11.7146C11.7146 1.42901 10.5493 0.3 9.13686 0.3V1ZM7.88503 1V0.3C6.47254 0.3 5.3073 1.42901 5.3073 2.8464H6.0073H6.7073C6.7073 2.22432 7.22344 1.7 7.88503 1.7V1ZM10.2738 10.1464L10.1633 9.45514L9.64126 9.53864L9.75183 10.2299L9.86239 10.9211L10.3844 10.8376L10.2738 10.1464ZM15.6963 7.87421L16.1125 8.437L16.2083 8.36612L15.7921 7.80333L15.3758 7.24053L15.28 7.31141L15.6963 7.87421ZM6.72618 10.1464L6.61561 10.8376L7.13761 10.9211L7.24818 10.2299L7.35874 9.53864L6.83674 9.45514L6.72618 10.1464ZM1.30375 7.87421L1.72 7.31141L1.62417 7.24053L1.20792 7.80333L0.791671 8.36612L0.887501 8.437L1.30375 7.87421ZM6.72618 10.1464L6.83674 9.45514C4.97705 9.15768 3.2208 8.42142 1.72 7.31141L1.30375 7.87421L0.887502 8.437C2.57 9.68139 4.53624 10.505 6.61561 10.8376L6.72618 10.1464ZM10.2738 10.1464L10.3844 10.8376C12.4638 10.505 14.43 9.68139 16.1125 8.437L15.6963 7.87421L15.28 7.31141C13.7792 8.42142 12.023 9.15768 10.1633 9.45514L10.2738 10.1464ZM16 10.8453L16.6999 10.8364L16.6578 7.53522L15.9578 7.54416L15.2579 7.5531L15.3 10.8543L16 10.8453ZM1.00003 10.8453L1.70001 10.8508L1.72947 7.09047L1.02949 7.08499L0.329509 7.0795L0.30005 10.8398L1.00003 10.8453Z" fill="#7B61FF"/>
</svg>
