<svg width="244" height="31" viewBox="0 0 244 31" fill="none" xmlns="http://www.w3.org/2000/svg">
<path d="M4.30891 30V24.918H11.8269C13.7309 24.918 15.3969 24.526 16.8249 23.742C18.2529 22.93 19.3589 21.796 20.1429 20.34C20.9549 18.884 21.3609 17.162 21.3609 15.174C21.3609 13.242 20.9549 11.562 20.1429 10.134C19.3309 8.678 18.2109 7.558 16.7829 6.774C15.3549 5.962 13.7029 5.556 11.8269 5.556H4.18291V0.474H11.9109C14.0949 0.474 16.1109 0.837999 17.9589 1.566C19.8349 2.294 21.4589 3.33 22.8309 4.674C24.2309 5.99 25.3089 7.544 26.0649 9.336C26.8489 11.128 27.2409 13.088 27.2409 15.216C27.2409 17.344 26.8489 19.318 26.0649 21.138C25.3089 22.93 24.2449 24.498 22.8729 25.842C21.5009 27.158 19.8769 28.18 18.0009 28.908C16.1529 29.636 14.1509 30 11.9949 30H4.30891ZM0.402906 30V0.474H6.11491V30H0.402906ZM31.7799 30V0.474H37.4919V30H31.7799ZM51.5451 30.42C49.1651 30.42 47.1211 30.014 45.4131 29.202C43.7331 28.39 42.2071 27.172 40.8351 25.548L44.6151 21.768C45.4831 22.916 46.4911 23.812 47.6391 24.456C48.7871 25.072 50.1871 25.38 51.8391 25.38C53.3231 25.38 54.4991 25.086 55.3671 24.498C56.2631 23.91 56.7111 23.098 56.7111 22.062C56.7111 21.166 56.4591 20.438 55.9551 19.878C55.4511 19.318 54.7791 18.842 53.9391 18.45C53.1271 18.058 52.2171 17.708 51.2091 17.4C50.2291 17.064 49.2351 16.686 48.2271 16.266C47.2471 15.846 46.3371 15.328 45.4971 14.712C44.6851 14.068 44.0271 13.256 43.5231 12.276C43.0191 11.268 42.7671 10.008 42.7671 8.496C42.7671 6.704 43.2011 5.178 44.0691 3.918C44.9371 2.658 46.1271 1.692 47.6391 1.02C49.1511 0.347998 50.8591 0.0119981 52.7631 0.0119981C54.7791 0.0119981 56.5991 0.389998 58.2231 1.146C59.8471 1.902 61.1771 2.882 62.2131 4.086L58.4331 7.866C57.5651 6.914 56.6691 6.214 55.7451 5.766C54.8491 5.318 53.8271 5.094 52.6791 5.094C51.3631 5.094 50.3271 5.346 49.5711 5.85C48.8151 6.354 48.4371 7.082 48.4371 8.034C48.4371 8.846 48.6891 9.504 49.1931 10.008C49.6971 10.512 50.3551 10.946 51.1671 11.31C52.0071 11.674 52.9171 12.024 53.8971 12.36C54.9051 12.696 55.8991 13.074 56.8791 13.494C57.8871 13.914 58.7971 14.46 59.6091 15.132C60.4491 15.804 61.1211 16.672 61.6251 17.736C62.1291 18.772 62.3811 20.06 62.3811 21.6C62.3811 24.344 61.4151 26.5 59.4831 28.068C57.5511 29.636 54.9051 30.42 51.5451 30.42ZM80.8273 30.42C78.6713 30.42 76.6693 30.042 74.8213 29.286C72.9733 28.502 71.3493 27.424 69.9493 26.052C68.5773 24.652 67.5133 23.028 66.7573 21.18C66.0293 19.332 65.6653 17.344 65.6653 15.216C65.6653 13.088 66.0293 11.1 66.7573 9.252C67.5133 7.404 68.5773 5.794 69.9493 4.422C71.3493 3.05 72.9593 1.972 74.7793 1.188C76.6273 0.403998 78.6433 0.0119981 80.8273 0.0119981C83.1793 0.0119981 85.2513 0.403998 87.0433 1.188C88.8353 1.944 90.4173 2.994 91.7893 4.338L87.9253 8.202C87.1133 7.306 86.1193 6.606 84.9433 6.102C83.7673 5.598 82.3953 5.346 80.8273 5.346C79.4553 5.346 78.1953 5.584 77.0473 6.06C75.9273 6.508 74.9473 7.18 74.1073 8.076C73.2673 8.944 72.6233 9.994 72.1753 11.226C71.7273 12.43 71.5033 13.76 71.5033 15.216C71.5033 16.7 71.7273 18.044 72.1753 19.248C72.6233 20.452 73.2673 21.502 74.1073 22.398C74.9473 23.266 75.9273 23.938 77.0473 24.414C78.1953 24.89 79.4553 25.128 80.8273 25.128C82.4793 25.128 83.8933 24.876 85.0693 24.372C86.2733 23.868 87.2813 23.154 88.0933 22.23L91.9573 26.094C90.5853 27.466 88.9893 28.53 87.1693 29.286C85.3493 30.042 83.2353 30.42 80.8273 30.42ZM95.9283 30V0.474H101.64V30H95.9283ZM100.128 30V24.918H115.164V30H100.128ZM116.18 30L128.066 0.474H132.728L144.572 30H138.482L129.326 5.766H131.426L122.144 30H116.18ZM122.48 24.498V19.71H138.356V24.498H122.48ZM148.059 30V0.474H153.771V30H148.059ZM159.831 30V0.474H163.863L175.833 19.626H173.523L185.451 0.474H189.483V30H183.813V10.26L184.905 10.596L176.589 23.952H172.725L164.409 10.596L165.543 10.26V30H159.831ZM195.514 30V0.474H201.226V30H195.514ZM199.714 30V24.96H216.052V30H199.714ZM199.714 17.358V12.486H214.582V17.358H199.714ZM199.714 5.514V0.474H215.842V5.514H199.714ZM224.98 17.652V13.2H231.826C233.226 13.2 234.304 12.85 235.06 12.15C235.844 11.422 236.236 10.428 236.236 9.168C236.236 8.02 235.844 7.068 235.06 6.312C234.304 5.528 233.226 5.136 231.826 5.136H224.98V0.474H232.33C234.234 0.474 235.9 0.851999 237.328 1.608C238.784 2.336 239.904 3.344 240.688 4.632C241.5 5.92 241.906 7.404 241.906 9.084C241.906 10.82 241.5 12.332 240.688 13.62C239.904 14.88 238.784 15.874 237.328 16.602C235.872 17.302 234.178 17.652 232.246 17.652H224.98ZM220.78 30V0.474H226.492V30H220.78ZM236.908 30L227.164 17.232L232.414 15.594L243.838 30H236.908Z" fill="url(#paint0_linear_88_2958)"/>
<defs>
<linearGradient id="paint0_linear_88_2958" x1="-3" y1="14.5" x2="245" y2="14.5" gradientUnits="userSpaceOnUse">
<stop/>
<stop offset="1" stop-color="#7B61FF"/>
</linearGradient>
</defs>
</svg>
