<svg width="18" height="10" viewBox="0 0 18 10" fill="none" xmlns="http://www.w3.org/2000/svg">
<path fill-rule="evenodd" clip-rule="evenodd" d="M17.5793 0.258855C17.8966 0.394827 18.0435 0.762251 17.9076 1.07952L17.3331 0.833321C17.9076 1.07952 17.9076 1.07937 17.9076 1.07952L17.907 1.08092L17.9061 1.08299L17.9034 1.08912L17.8945 1.10919C17.887 1.12597 17.8764 1.14948 17.8625 1.17922C17.8348 1.23868 17.7942 1.32311 17.7405 1.42845C17.6331 1.63899 17.4728 1.93389 17.2569 2.28037C16.9022 2.84957 16.3935 3.5647 15.7181 4.27514L16.5251 5.08208C16.7691 5.32615 16.7691 5.72188 16.5251 5.96596C16.281 6.21004 15.8852 6.21004 15.6412 5.96596L14.8073 5.13214C14.2576 5.59272 13.6272 6.02501 12.9124 6.38018L13.6903 7.57579C13.8786 7.86511 13.7966 8.25226 13.5073 8.44052C13.218 8.62877 12.8308 8.54684 12.6426 8.25752L11.7349 6.86261C11.0855 7.0747 10.3823 7.21883 9.62477 7.2705V8.74999C9.62477 9.09516 9.34495 9.37499 8.99977 9.37499C8.6546 9.37499 8.37477 9.09516 8.37477 8.74999V7.2705C7.64058 7.22042 6.95742 7.0835 6.32469 6.88199L5.42963 8.25758C5.24137 8.5469 4.85422 8.62883 4.5649 8.44058C4.27558 8.25232 4.19364 7.86517 4.3819 7.57584L5.14225 6.40729C4.42193 6.05553 3.78635 5.62513 3.23186 5.1652L2.43104 5.96602C2.18696 6.21009 1.79123 6.21009 1.54716 5.96602C1.30308 5.72194 1.30308 5.32621 1.54716 5.08213L2.31696 4.31233C1.62983 3.59592 1.11255 2.87212 0.752145 2.29554C0.53304 1.94502 0.370333 1.64636 0.261405 1.43306C0.206905 1.32634 0.165757 1.24078 0.137646 1.18052C0.123587 1.15038 0.112779 1.12656 0.105183 1.10956L0.0961882 1.08923L0.0934859 1.08303L0.0925817 1.08093L0.0922411 1.08014C0.0921776 1.07999 0.0919747 1.07952 0.66644 0.833321L0.0922411 1.08014C-0.0437312 0.762872 0.102972 0.394827 0.420241 0.258855C0.737248 0.122995 1.10433 0.269611 1.24057 0.586338C1.24052 0.586229 1.24062 0.586447 1.24057 0.586338L1.24137 0.588164L1.24643 0.599592C1.25134 0.610588 1.25933 0.628243 1.27044 0.652053C1.29266 0.699686 1.32731 0.771862 1.37464 0.864548C1.46938 1.05007 1.61452 1.31688 1.81211 1.63299C2.20844 2.26705 2.80948 3.08923 3.62951 3.85131C4.35109 4.52191 5.23533 5.13962 6.29288 5.54649C7.08829 5.85251 7.98765 6.04165 8.99977 6.04165C10.0345 6.04165 10.9515 5.84396 11.7602 5.52567C12.8113 5.11192 13.6896 4.49019 14.4054 3.81831C15.2133 3.05996 15.8055 2.24595 16.196 1.61932C16.3906 1.30691 16.5336 1.04354 16.627 0.860544C16.6736 0.769116 16.7077 0.697961 16.7296 0.651025C16.7405 0.627564 16.7484 0.610176 16.7532 0.599355L16.7582 0.588119L16.7586 0.587121C16.7586 0.587203 16.7587 0.58704 16.7586 0.587121M17.5793 0.258855C17.2621 0.122918 16.8947 0.270022 16.7586 0.587121L17.5793 0.258855ZM1.24057 0.586338C1.24052 0.586229 1.24062 0.586447 1.24057 0.586338V0.586338Z" fill="#BFBBB6"/>
</svg>
