<svg width="42" height="42" viewBox="0 0 42 42" fill="none" xmlns="http://www.w3.org/2000/svg">
<rect width="42" height="42" rx="20" fill="#DFD9FF" fill-opacity="0.46"/>
<path d="M12.0308 21.75C12.4119 26.3696 16.282 30 21 30C22.9593 30 24.7723 29.3739 26.25 28.3109M12.0308 21.75C12.0104 21.5027 12 21.2526 12 21C12 17.9887 13.4789 15.3228 15.75 13.6891M12.0308 21.75H12.75H14.25C15.1017 21.75 15.8429 21.2973 16.225 20.6298C16.5233 20.1085 17.0037 19.5978 17.625 19.5978H18.375C19.4105 19.5978 20.25 18.7949 20.25 17.8043C20.25 16.8138 19.4105 16.0109 18.375 16.0109H18C16.7574 16.0109 15.75 15.0473 15.75 13.8587V13.6891M15.75 13.6891C17.2277 12.6261 19.0407 12 21 12C25.4595 12 29.1614 15.2434 29.8756 19.5M29.8756 19.5C29.9574 19.9878 30 20.4889 30 21C30 24.0113 28.5211 26.6772 26.25 28.3109M29.8756 19.5H29.25H27.75C26.8983 19.5 26.1571 19.9733 25.775 20.6712C25.4767 21.2162 24.9963 21.75 24.375 21.75H23.625C22.5895 21.75 21.75 22.5895 21.75 23.625C21.75 24.6605 22.5895 25.5 23.625 25.5H24C25.2426 25.5 26.25 26.5074 26.25 27.75V28.3109" stroke="#7B61FF" stroke-width="1.4"/>
</svg>
