<svg width="42" height="42" viewBox="0 0 42 42" fill="none" xmlns="http://www.w3.org/2000/svg">
<path d="M8.44303 22.05C8.97659 28.5175 14.3947 33.6 20.9999 33.6C23.7429 33.6 26.2812 32.7235 28.3499 31.2353M8.44303 22.05C8.41447 21.7038 8.3999 21.3536 8.3999 21C8.3999 16.7842 10.4704 13.052 13.6499 10.7647M8.44303 22.05H9.4499H11.5499C12.7423 22.05 13.78 21.4163 14.3149 20.4817C14.7325 19.7519 15.4051 19.037 16.2749 19.037H17.3249C18.7747 19.037 19.9499 17.9128 19.9499 16.5261C19.9499 15.1394 18.7747 14.0152 17.3249 14.0152H16.7999C15.0602 14.0152 13.6499 12.6663 13.6499 11.0022V10.7647M13.6499 10.7647C15.7187 9.27652 18.2569 8.40002 20.9999 8.40002C27.2432 8.40002 32.4259 12.9408 33.4257 18.9M33.4257 18.9C33.5403 19.583 33.5999 20.2845 33.5999 21C33.5999 25.2158 31.5294 28.9481 28.3499 31.2353M33.4257 18.9H32.5499H30.4499C29.2575 18.9 28.2198 19.5626 27.6849 20.5396C27.2673 21.3027 26.5948 22.05 25.7249 22.05H24.6749C23.2252 22.05 22.0499 23.2253 22.0499 24.675C22.0499 26.1248 23.2252 27.3 24.6749 27.3H25.1999C26.9396 27.3 28.3499 28.7103 28.3499 30.45V31.2353" stroke="#7B61FF" stroke-width="2"/>
</svg>
