<svg width="42" height="42" viewBox="0 0 42 42" fill="none" xmlns="http://www.w3.org/2000/svg">
<rect width="42" height="42" rx="20" fill="#DFD9FF" fill-opacity="0.46"/>
<path d="M20.9645 13.449L20.7155 13.0282C20.5476 12.7439 20.4638 12.6018 20.3751 12.4927C19.7213 11.6881 18.4666 11.4746 17.3292 11.974C17.1749 12.0417 17.002 12.1393 16.6557 12.3359C14.7689 13.4995 14.642 17.0396 14.7194 17.5575C14.7194 17.5575 14.6141 19.2948 16.9345 23.2232C19.2548 27.1515 21.0925 28.3478 21.0925 28.3478C22.1333 29.0923 24.7067 30.3249 26.6748 29.299C27.021 29.1024 27.1941 29.0039 27.3307 28.9064C28.3384 28.1875 28.7736 27.0136 28.3872 26.0572C28.3348 25.9274 28.2511 25.7852 28.0831 25.5009L27.8346 25.08C27.5642 24.6223 27.3851 24.3196 27.2158 24.1043C27.0715 23.9207 26.8518 23.8022 26.6168 23.7114C25.6012 23.3189 23.4953 23.8998 22.4326 23.5872C22.3226 23.5548 22.2157 23.5155 22.1122 23.4698C22.0065 23.4229 21.9058 23.3701 21.8167 23.3029C21.5392 23.0938 20.8882 22.5399 20.3216 21.5806C19.5881 20.3389 19.5896 19.4268 19.5897 19.4027L19.5898 19.4011C19.5937 19.1176 19.6447 18.8335 19.7375 18.5561C20.0802 17.5319 21.5519 16.0485 21.611 15.0246C21.6198 14.8731 21.6155 14.7221 21.5679 14.585C21.4718 14.3082 21.2808 13.9845 20.9645 13.449Z" stroke="#7B61FF" stroke-width="1.6" stroke-linecap="round" stroke-linejoin="round"/>
</svg>
