<svg width="42" height="42" viewBox="0 0 42 42" fill="none" xmlns="http://www.w3.org/2000/svg">
<path d="M20.6523 11.7831L20.3346 11.2444C20.1203 10.8805 20.0133 10.6986 19.9031 10.5571C19.091 9.51408 17.6303 9.15776 16.3571 9.69164C16.1845 9.76406 15.9925 9.87199 15.6082 10.0897C13.5208 11.3898 13.635 15.7581 13.7623 16.4044C13.7623 16.4044 13.7688 18.5449 16.7301 23.5734C19.6913 28.602 21.8957 30.2164 21.8957 30.2164C23.149 31.2137 26.2035 32.9272 28.3946 31.8034C28.7789 31.5857 28.9709 31.4766 29.1211 31.3661C30.2288 30.5512 30.6437 29.1316 30.1283 27.9204C30.0584 27.7562 29.9515 27.5741 29.7371 27.2101L29.42 26.6715C29.0749 26.0855 28.8464 25.6981 28.6356 25.4193C28.4558 25.1816 28.1942 25.019 27.9168 24.8894C26.7182 24.3293 24.3357 24.8927 23.0888 24.428C22.9597 24.3799 22.8337 24.3235 22.7112 24.2593C22.586 24.1936 22.4662 24.1208 22.3586 24.0312C22.0236 23.7522 21.2331 23.0193 20.51 21.7914C19.574 20.202 19.5086 19.0742 19.507 19.0444L19.507 19.0424C19.4906 18.6921 19.5284 18.3445 19.6149 18.0083C19.9343 16.767 21.52 15.0409 21.5128 13.7791C21.5117 13.5923 21.4957 13.4053 21.4308 13.2323C21.2997 12.8829 21.056 12.4686 20.6523 11.7831Z" stroke="#7B61FF" stroke-width="1.6" stroke-linecap="round" stroke-linejoin="round"/>
</svg>
