<svg width="42" height="42" viewBox="0 0 42 42" fill="none" xmlns="http://www.w3.org/2000/svg">
<rect width="42" height="42" rx="20" fill="#DFD9FF" fill-opacity="0.46"/>
<path d="M15.2308 16.8636L18.4398 19.0127C19.6808 19.8438 20.3013 20.2593 21 20.2593C21.6987 20.2593 22.3192 19.8438 23.5602 19.0127L26.7692 16.8636M19.1538 30H23.6154C26.2002 30 27.4927 30 28.48 29.4947C29.3484 29.0502 30.0545 28.3409 30.497 27.4685C31 26.4767 31 25.1784 31 22.5818V20.4182C31 17.8216 31 16.5233 30.497 15.5315C30.0545 14.6591 29.3484 13.9498 28.48 13.5053C27.4927 13 26.2002 13 23.6154 13H19.1538C16.569 13 14.5073 13 13.52 13.5053C12.6516 13.9498 11.9455 14.6591 11.503 15.5315C11 16.5233 11 17.8216 11 20.4182V22.5818C11 25.1784 11 26.4767 11.503 27.4685C11.9455 28.3409 12.6516 29.0502 13.52 29.4947C14.5073 30 16.569 30 19.1538 30Z" stroke="#7B61FF" stroke-width="1.6" stroke-linecap="round"/>
</svg>
