<svg width="42" height="42" viewBox="0 0 42 42" fill="none" xmlns="http://www.w3.org/2000/svg">
<path d="M13.1251 14.7L17.5055 17.6202C19.1994 18.7495 20.0464 19.3141 21.0001 19.3141C21.9538 19.3141 22.8008 18.7495 24.4947 17.6202L28.8751 14.7M18.4801 32.55H24.5701C28.0984 32.55 29.8626 32.55 31.2102 31.8633C32.3957 31.2593 33.3594 30.2955 33.9634 29.1101C34.6501 27.7624 34.6501 25.9983 34.6501 22.47V19.53C34.6501 16.0016 34.6501 14.2375 33.9634 12.8898C33.3594 11.7044 32.3957 10.7406 31.2102 10.1366C29.8626 9.44995 28.0984 9.44995 24.5701 9.44995H18.4801C14.9518 9.44995 12.1376 9.44995 10.79 10.1366C9.60454 10.7406 8.64076 11.7044 8.03676 12.8898C7.3501 14.2375 7.3501 16.0016 7.3501 19.53V22.47C7.3501 25.9983 7.3501 27.7624 8.03676 29.1101C8.64076 30.2955 9.60454 31.2593 10.79 31.8633C12.1376 32.55 14.9518 32.55 18.4801 32.55Z" stroke="#7B61FF" stroke-width="1.6" stroke-linecap="round"/>
</svg>
