<svg width="42" height="42" viewBox="0 0 42 42" fill="none" xmlns="http://www.w3.org/2000/svg">
<rect width="42" height="42" rx="21" fill="#9C99AA"/>
<path d="M29 19.1735C29 23.0031 23.2423 28.2957 21.4961 29.8128C21.2088 30.0624 20.7912 30.0624 20.5039 29.8128C18.7577 28.2957 13 23.0031 13 19.1735C13 14.6594 16.5817 11 21 11C25.4183 11 29 14.6594 29 19.1735Z" stroke="#7B61FF" stroke-width="1.4"/>
<path d="M23.6667 17.8695C23.6667 19.387 22.4728 20.6173 21 20.6173C19.5272 20.6173 18.3333 19.387 18.3333 17.8695C18.3333 16.3519 19.5272 15.1217 21 15.1217C22.4728 15.1217 23.6667 16.3519 23.6667 17.8695Z" stroke="#7B61FF" stroke-width="1.4"/>
</svg>
