<svg width="42" height="42" viewBox="0 0 42 42" fill="none" xmlns="http://www.w3.org/2000/svg">
<rect width="42" height="42" rx="20" fill="#DFD9FF" fill-opacity="0.46"/>
<path d="M14.142 26.6615L13.8296 27.2879L13.8296 27.2879L14.142 26.6615ZM12.4276 24.9833L13.0485 24.6601L13.0485 24.6601L12.4276 24.9833ZM29 27.08L29.4896 27.5802C29.6242 27.4486 29.7 27.2682 29.7 27.08C29.7 26.8918 29.6242 26.7114 29.4896 26.5798L29 27.08ZM26.858 13.4185L26.5455 14.045L26.5455 14.045L26.858 13.4185ZM28.5724 15.0967L29.1933 14.7735L29.1933 14.7735L28.5724 15.0967ZM14.142 13.4185L13.8296 12.7921L13.8296 12.7921L14.142 13.4185ZM12.4276 15.0967L11.8067 14.7735L11.8067 14.7735L12.4276 15.0967ZM27.5281 24.6598C27.2518 24.3893 26.8086 24.3941 26.5382 24.6704C26.2678 24.9466 26.2725 25.3898 26.5488 25.6602L27.5281 24.6598ZM26.5488 28.4998C26.2725 28.7702 26.2678 29.2134 26.5382 29.4896C26.8086 29.7659 27.2518 29.7707 27.5281 29.5002L26.5488 28.4998ZM18.9308 13V13.7H22.7231V13V12.3H18.9308V13ZM29 19.144H28.3V20.936H29H29.7V19.144H29ZM12 20.936H12.7V19.144H12H11.3V20.936H12ZM18.9308 27.08V26.38C17.8248 26.38 16.8624 26.3797 16.0719 26.3291C15.2571 26.277 14.7362 26.1756 14.4545 26.035L14.142 26.6615L13.8296 27.2879C14.3871 27.5659 15.162 27.6738 15.9825 27.7263C16.8273 27.7803 17.8396 27.78 18.9308 27.78V27.08ZM12 20.936H11.3C11.3 21.9995 11.2994 22.8401 11.3559 23.5163C11.413 24.2012 11.5323 24.7794 11.8067 25.3065L12.4276 24.9833L13.0485 24.6601C12.8953 24.3658 12.8008 23.9957 12.751 23.3999C12.7006 22.7954 12.7 22.0231 12.7 20.936H12ZM14.142 26.6615L14.4545 26.035C13.8467 25.732 13.3555 25.2498 13.0485 24.6601L12.4276 24.9833L11.8067 25.3065C12.252 26.162 12.961 26.8547 13.8296 27.2879L14.142 26.6615ZM22.7231 13V13.7C23.8329 13.7 24.6241 13.7005 25.2439 13.7501C25.856 13.799 26.2397 13.8924 26.5455 14.045L26.858 13.4185L27.1704 12.7921C26.637 12.5261 26.0519 12.4102 25.3555 12.3545C24.667 12.2995 23.8103 12.3 22.7231 12.3V13ZM29 19.144H29.7C29.7 18.503 29.7 17.9463 29.6883 17.463L28.9885 17.48L28.2887 17.497C28.3 17.9597 28.3 18.4977 28.3 19.144H29ZM28.9885 17.48L29.6883 17.463C29.6614 16.3509 29.5742 15.5051 29.1933 14.7735L28.5724 15.0967L27.9515 15.4199C28.1699 15.8394 28.262 16.3941 28.2887 17.497L28.9885 17.48ZM26.858 13.4185L26.5455 14.045C27.1533 14.348 27.6445 14.8302 27.9515 15.4199L28.5724 15.0967L29.1933 14.7735C28.748 13.918 28.039 13.2253 27.1704 12.7921L26.858 13.4185ZM18.9308 13V12.3C17.8396 12.3 16.8273 12.2997 15.9825 12.3537C15.162 12.4062 14.3871 12.5141 13.8296 12.7921L14.142 13.4185L14.4545 14.045C14.7362 13.9044 15.2571 13.803 16.0719 13.7509C16.8624 13.7003 17.8248 13.7 18.9308 13.7V13ZM12 19.144H12.7C12.7 18.0569 12.7006 17.2846 12.751 16.6801C12.8008 16.0843 12.8953 15.7142 13.0485 15.4199L12.4276 15.0967L11.8067 14.7735C11.5323 15.3006 11.413 15.8788 11.3559 16.5637C11.2994 17.2399 11.3 18.0805 11.3 19.144H12ZM14.142 13.4185L13.8296 12.7921C12.961 13.2253 12.252 13.918 11.8067 14.7735L12.4276 15.0967L13.0485 15.4199C13.3555 14.8302 13.8467 14.348 14.4545 14.045L14.142 13.4185ZM24.4231 17.48V18.18H28.9885V17.48V16.78H24.4231V17.48ZM28.9885 17.48V18.18H29V17.48V16.78H28.9885V17.48ZM24.4231 22.6V21.9C23.351 21.9 22.5077 21.0532 22.5077 20.04H21.8077H21.1077C21.1077 21.8545 22.6062 23.3 24.4231 23.3V22.6ZM24.4231 17.48V16.78C22.6062 16.78 21.1077 18.2255 21.1077 20.04H21.8077H22.5077C22.5077 19.0268 23.351 18.18 24.4231 18.18V17.48ZM29 27.08L29.4896 26.5798L27.5281 24.6598L27.0385 25.16L26.5488 25.6602L28.5104 27.5802L29 27.08ZM29 27.08L28.5104 26.5798L26.5488 28.4998L27.0385 29L27.5281 29.5002L29.4896 27.5802L29 27.08ZM24.4231 22.6V23.3H27.3V22.6V21.9H24.4231V22.6ZM27.3 22.6V23.3C28.6113 23.3 29.7 22.2556 29.7 20.936H29H28.3C28.3 21.4544 27.8665 21.9 27.3 21.9V22.6ZM29 27.08V26.38H18.9308V27.08V27.78H29V27.08Z" fill="#7B61FF"/>
<rect x="23" y="19" width="2" height="1" rx="0.5" fill="#7B61FF"/>
<rect x="14" y="15" width="5" height="2" rx="1" fill="#7B61FF"/>
</svg>
