<svg width="16" height="14" viewBox="0 0 16 14" fill="none" xmlns="http://www.w3.org/2000/svg">
<path d="M3.8751 3.7L6.16959 5.22966C7.05687 5.82118 7.50052 6.11694 8.0001 6.11694C8.49968 6.11694 8.94332 5.82118 9.83061 5.22966L12.1251 3.7M6.6801 13.05H9.8701C11.7183 13.05 12.6424 13.05 13.3483 12.6903C13.9692 12.3739 14.474 11.8691 14.7904 11.2482C15.1501 10.5423 15.1501 9.61817 15.1501 7.77V6.23C15.1501 4.38182 15.1501 3.45774 14.7904 2.75183C14.474 2.13089 13.9692 1.62606 13.3483 1.30968C12.6424 0.949997 11.7183 0.949997 9.8701 0.949997H6.6801C4.83192 0.949997 3.35784 0.949997 2.65193 1.30968C2.03099 1.62606 1.52616 2.13089 1.20978 2.75183C0.850098 3.45774 0.850098 4.38182 0.850098 6.23V7.77C0.850098 9.61817 0.850098 10.5423 1.20978 11.2482C1.52616 11.8691 2.03099 12.3739 2.65193 12.6903C3.35784 13.05 4.83192 13.05 6.6801 13.05Z" stroke="#7B61FF" stroke-width="1.6" stroke-linecap="round"/>
</svg>
