<svg width="19" height="18" viewBox="0 0 19 18" fill="none" xmlns="http://www.w3.org/2000/svg">
<path d="M3.14204 14.6615L2.82962 15.2879H2.82962L3.14204 14.6615ZM1.42759 12.9833L2.0485 12.6601H2.0485L1.42759 12.9833ZM18 15.08L18.4896 15.5802C18.6242 15.4486 18.7 15.2682 18.7 15.08C18.7 14.8918 18.6242 14.7114 18.4896 14.5798L18 15.08ZM15.858 1.41853L15.5455 2.04495V2.04495L15.858 1.41853ZM17.5724 3.09668L18.1933 2.77346V2.77346L17.5724 3.09668ZM3.14204 1.41853L2.82962 0.792119L3.14204 1.41853ZM1.42759 3.09668L0.806678 2.77346V2.77346L1.42759 3.09668ZM16.5281 12.6598C16.2518 12.3893 15.8086 12.3941 15.5382 12.6704C15.2678 12.9466 15.2725 13.3898 15.5488 13.6602L16.5281 12.6598ZM15.5488 16.4998C15.2725 16.7702 15.2678 17.2134 15.5382 17.4896C15.8086 17.7659 16.2518 17.7707 16.5281 17.5002L15.5488 16.4998ZM7.93077 1V1.7H11.7231V1V0.3H7.93077V1ZM18 7.144H17.3V8.936H18H18.7V7.144H18ZM1 8.936H1.7V7.144H1H0.3V8.936H1ZM7.93077 15.08V14.38C6.82484 14.38 5.86239 14.3797 5.07188 14.3291C4.2571 14.277 3.73617 14.1756 3.45445 14.035L3.14204 14.6615L2.82962 15.2879C3.38709 15.5659 4.16197 15.6738 4.98248 15.7263C5.82725 15.7803 6.83957 15.78 7.93077 15.78V15.08ZM1 8.936H0.3C0.3 9.9995 0.299432 10.8401 0.355875 11.5163C0.413037 12.2012 0.532272 12.7794 0.806678 13.3065L1.42759 12.9833L2.0485 12.6601C1.89532 12.3658 1.80076 11.9957 1.75102 11.3999C1.70057 10.7954 1.7 10.0231 1.7 8.936H1ZM3.14204 14.6615L3.45445 14.035C2.84674 13.732 2.35545 13.2498 2.0485 12.6601L1.42759 12.9833L0.806678 13.3065C1.25196 14.162 1.96099 14.8547 2.82962 15.2879L3.14204 14.6615ZM11.7231 1V1.7C12.8329 1.7 13.6241 1.70052 14.2439 1.75009C14.856 1.79904 15.2397 1.89244 15.5455 2.04495L15.858 1.41853L16.1704 0.792119C15.637 0.5261 15.0519 0.41023 14.3555 0.354545C13.667 0.299478 12.8103 0.3 11.7231 0.3V1ZM18 7.144H18.7C18.7 6.50302 18.7 5.94634 18.6883 5.46304L17.9885 5.48L17.2887 5.49696C17.3 5.95972 17.3 6.49769 17.3 7.144H18ZM17.9885 5.48L18.6883 5.46304C18.6614 4.35092 18.5742 3.50507 18.1933 2.77346L17.5724 3.09668L16.9515 3.41989C17.1699 3.83945 17.262 4.39407 17.2887 5.49696L17.9885 5.48ZM15.858 1.41853L15.5455 2.04495C16.1533 2.34804 16.6445 2.83022 16.9515 3.41989L17.5724 3.09668L18.1933 2.77346C17.748 1.91805 17.039 1.22534 16.1704 0.792119L15.858 1.41853ZM7.93077 1V0.3C6.83957 0.3 5.82725 0.299693 4.98248 0.353745C4.16197 0.406246 3.38709 0.514088 2.82962 0.792119L3.14204 1.41853L3.45445 2.04495C3.73617 1.90445 4.2571 1.80302 5.07188 1.75089C5.86239 1.70031 6.82484 1.7 7.93077 1.7V1ZM1 7.144H1.7C1.7 6.0569 1.70057 5.28458 1.75102 4.68012C1.80076 4.08429 1.89532 3.71417 2.0485 3.41989L1.42759 3.09668L0.806678 2.77346C0.532272 3.30061 0.413037 3.87885 0.355875 4.56367C0.299432 5.23986 0.3 6.0805 0.3 7.144H1ZM3.14204 1.41853L2.82962 0.792119C1.96098 1.22534 1.25196 1.91805 0.806678 2.77346L1.42759 3.09668L2.0485 3.41989C2.35545 2.83022 2.84674 2.34804 3.45445 2.04495L3.14204 1.41853ZM13.4231 5.48V6.18H17.9885V5.48V4.78H13.4231V5.48ZM17.9885 5.48V6.18H18V5.48V4.78H17.9885V5.48ZM13.4231 10.6V9.9C12.351 9.9 11.5077 9.0532 11.5077 8.04H10.8077H10.1077C10.1077 9.8545 11.6062 11.3 13.4231 11.3V10.6ZM13.4231 5.48V4.78C11.6062 4.78 10.1077 6.2255 10.1077 8.04H10.8077H11.5077C11.5077 7.0268 12.351 6.18 13.4231 6.18V5.48ZM18 15.08L18.4896 14.5798L16.5281 12.6598L16.0385 13.16L15.5488 13.6602L17.5103 15.5802L18 15.08ZM18 15.08L17.5103 14.5798L15.5488 16.4998L16.0385 17L16.5281 17.5002L18.4896 15.5802L18 15.08ZM13.4231 10.6V11.3H16.3V10.6V9.9H13.4231V10.6ZM16.3 10.6V11.3C17.6113 11.3 18.7 10.2556 18.7 8.936H18H17.3C17.3 9.45435 16.8665 9.9 16.3 9.9V10.6ZM18 15.08V14.38H7.93077V15.08V15.78H18V15.08Z" fill="#7B61FF"/>
<rect x="12" y="7" width="2" height="1" rx="0.5" fill="#7B61FF"/>
<rect x="3" y="3" width="5" height="2" rx="1" fill="#7B61FF"/>
</svg>
