<svg width="11" height="14" viewBox="0 0 11 14" fill="none" xmlns="http://www.w3.org/2000/svg">
<path d="M4.81774 2.17209L4.65134 1.88994C4.53909 1.69932 4.48304 1.60405 4.42534 1.52994C3.99994 0.983571 3.23478 0.796927 2.56791 1.07658C2.47746 1.11451 2.3769 1.17105 2.17558 1.2851C1.08219 1.96608 1.14204 4.25426 1.20871 4.59277C1.20871 4.59277 1.21212 5.71399 2.76324 8.34799C4.31437 10.982 5.46906 11.8277 5.46906 11.8277C6.12557 12.35 7.72551 13.2476 8.87326 12.6589C9.07455 12.5449 9.17512 12.4878 9.25381 12.4299C9.83401 12.003 10.0513 11.2594 9.78137 10.625C9.74475 10.5389 9.68874 10.4436 9.57648 10.2529L9.41035 9.97079C9.22961 9.66386 9.10989 9.4609 8.99946 9.31489C8.90531 9.19039 8.76825 9.10519 8.62297 9.0373C7.99515 8.74394 6.74714 9.03906 6.09401 8.79564C6.0264 8.77044 5.96041 8.74088 5.89623 8.70723C5.83064 8.67284 5.7679 8.63471 5.71152 8.58776C5.53605 8.44164 5.122 8.05776 4.74324 7.41457C4.25294 6.58198 4.21865 5.99123 4.21783 5.97563L4.21783 5.9746C4.20924 5.79113 4.22903 5.60904 4.27435 5.43292C4.44164 4.78272 5.27225 3.87856 5.26849 3.21762C5.26794 3.11979 5.25951 3.02185 5.22552 2.93119C5.15689 2.74822 5.02919 2.53115 4.81774 2.17209Z" stroke="#7B61FF" stroke-width="1.6" stroke-linecap="round" stroke-linejoin="round"/>
</svg>
