<svg width="42" height="42" viewBox="0 0 42 42" fill="none" xmlns="http://www.w3.org/2000/svg">
<rect width="42" height="42" rx="21" fill="#DFD9FF" fill-opacity="0.46"/>
<path d="M29 20.1735C29 24.0031 23.2423 29.2957 21.4961 30.8128C21.2088 31.0624 20.7912 31.0624 20.5039 30.8128C18.7577 29.2957 13 24.0031 13 20.1735C13 15.6594 16.5817 12 21 12C25.4183 12 29 15.6594 29 20.1735Z" stroke="#7B61FF" stroke-width="1.4"/>
<path d="M23.6667 18.8695C23.6667 20.387 22.4728 21.6173 21 21.6173C19.5272 21.6173 18.3333 20.387 18.3333 18.8695C18.3333 17.3519 19.5272 16.1217 21 16.1217C22.4728 16.1217 23.6667 17.3519 23.6667 18.8695Z" stroke="#7B61FF" stroke-width="1.4"/>
</svg>
