<svg width="24" height="21" viewBox="0 0 24 21" fill="none" xmlns="http://www.w3.org/2000/svg">
<path d="M23 7.04545H17.0769C15.2077 7.04545 13.6923 8.59211 13.6923 10.5C13.6923 12.4079 15.2077 13.9545 17.0769 13.9545H23M9.96923 20H14.8769C17.7203 20 19.1419 20 20.228 19.4352C21.1832 18.9384 21.9599 18.1457 22.4466 17.1707C23 16.0622 23 14.6112 23 11.7091V9.29091C23 6.38882 23 4.93777 22.4466 3.82932C21.9599 2.8543 21.1832 2.06158 20.228 1.56478C19.1419 1 17.7203 1 14.8769 1H9.96923C7.12589 1 4.85806 1 3.77205 1.56478C2.81676 2.06158 2.04009 2.8543 1.55335 3.82932C1 4.93777 1 6.38882 1 9.29091V11.7091C1 14.6112 1 16.0622 1.55335 17.1707C2.04009 18.1457 2.81676 18.9384 3.77205 19.4352C4.85806 20 7.12589 20 9.96923 20Z" stroke="#7B61FF" stroke-width="1.4"/>
<rect x="16.5" y="9.5" width="2" height="1" rx="0.5" fill="black" stroke="#7B61FF"/>
<rect x="4.5" y="4.5" width="6" height="1" rx="0.5" fill="black" stroke="#7B61FF"/>
</svg>
