<svg width="18" height="18" viewBox="0 0 18 18" fill="none" xmlns="http://www.w3.org/2000/svg">
<path d="M1 4.76993C1 3.74093 1 3.22644 1.17651 2.82239C1.39766 2.31615 1.80914 1.9128 2.32557 1.69602C2.73776 1.52299 3.26262 1.52299 4.31235 1.52299C5.36207 1.52299 5.88694 1.52299 6.29913 1.69602C6.81556 1.9128 7.22704 2.31615 7.44819 2.82239C7.6247 3.22644 7.6247 3.74093 7.6247 4.76993C7.6247 5.79892 7.6247 6.31342 7.44819 6.71747C7.22704 7.22371 6.81556 7.62706 6.29913 7.84384C5.88694 8.01686 5.36207 8.01686 4.31235 8.01686C3.26262 8.01686 2.73776 8.01686 2.32557 7.84384C1.80914 7.62706 1.39766 7.22371 1.17651 6.71747C1 6.31342 1 5.79892 1 4.76993Z" stroke="#7B61FF" stroke-width="1.4"/>
<path d="M10.2056 13.7531C10.2056 12.7241 10.2056 12.2096 10.3821 11.8055C10.6032 11.2993 11.0147 10.8959 11.5311 10.6792C11.9433 10.5061 12.4682 10.5061 13.5179 10.5061C14.5676 10.5061 15.0925 10.5061 15.5047 10.6792C16.0211 10.8959 16.4326 11.2993 16.6538 11.8055C16.8303 12.2096 16.8303 12.7241 16.8303 13.7531C16.8303 14.7821 16.8303 15.2966 16.6538 15.7006C16.4326 16.2068 16.0211 16.6102 15.5047 16.827C15.0925 17 14.5676 17 13.5179 17C12.4682 17 11.9433 17 11.5311 16.827C11.0147 16.6102 10.6032 16.2068 10.3821 15.7006C10.2056 15.2966 10.2056 14.7821 10.2056 13.7531Z" stroke="#7B61FF" stroke-width="1.4"/>
<path d="M1 13.7531C1 12.7241 1 12.2096 1.17651 11.8055C1.39766 11.2993 1.80914 10.8959 2.32557 10.6792C2.73776 10.5061 3.26262 10.5061 4.31235 10.5061C5.36207 10.5061 5.88694 10.5061 6.29913 10.6792C6.81556 10.8959 7.22704 11.2993 7.44819 11.8055C7.6247 12.2096 7.6247 12.7241 7.6247 13.7531C7.6247 14.7821 7.6247 15.2966 7.44819 15.7006C7.22704 16.2068 6.81556 16.6102 6.29913 16.827C5.88694 17 5.36207 17 4.31235 17C3.26262 17 2.73776 17 2.32557 16.827C1.80914 16.6102 1.39766 16.2068 1.17651 15.7006C1 15.2966 1 14.7821 1 13.7531Z" stroke="#7B61FF" stroke-width="1.4"/>
<path d="M11.3617 6.51247C10.6767 5.84279 10.3342 5.50795 10.1802 5.13268C9.9871 4.66249 9.9864 4.13817 10.1782 3.66848C10.3313 3.2936 10.6729 2.95964 11.356 2.2917C12.0392 1.62377 12.3808 1.28981 12.7642 1.14014C13.2447 0.952624 13.7809 0.953313 14.2619 1.14206C14.6457 1.29271 14.9882 1.62755 15.6732 2.29724C16.3581 2.96692 16.7006 3.30177 16.8547 3.67704C17.0478 4.14722 17.0485 4.67154 16.8567 5.14123C16.7036 5.51611 16.362 5.85007 15.6788 6.51801C14.9956 7.18594 14.654 7.5199 14.2706 7.66957C13.7902 7.85709 13.2539 7.8564 12.773 7.66765C12.3892 7.517 12.0467 7.18216 11.3617 6.51247Z" stroke="#7B61FF" stroke-width="1.4"/>
</svg>
